<svg class="Lingo4GRequestDiagram" version="1.1" width="100%" height="100%"
     viewBox="0 0 1051.5753021240234 575" xmlns="http://www.w3.org/2000/svg"
     style="transform-origin: 0px 0px 0px; transform: matrix(1, 0, 0, 1, 0, 0);">
  <style>
    :root {
    --stage-fill-lightness: 97%;
    --stage-fill-saturation: 100%;
    --stage-stroke-lightness: 60%;
    --stage-stroke-saturation: 40%;
    --component-fill-lightness: 98%;
    --component-fill-saturation: 50%;
    --component-stroke-lightness: 80%;
    --component-stroke-saturation: 40%;

    --edge-color: hsla(0, 0%, 0%, 0.15);
    }

    .dark :root {
    --stage-fill-lightness: 10%;
    --stage-fill-saturation: 100%;
    --stage-stroke-lightness: 40%;
    --stage-stroke-saturation: 40%;
    --component-fill-lightness: 15%;
    --component-fill-saturation: 20%;
    --component-stroke-lightness: 30%;
    --component-stroke-saturation: 30%;

    --edge-color: hsla(0, 0%, 100%, 0.2);
    }

    .node {
    --hue: 0;
    --fill-saturation: 0%;
    --fill-lightness: var(--stage-fill-lightness);
    --stroke-saturation: 0%;
    --stroke-lightness: var(--stage-stroke-lightness);

    fill: hsla(var(--hue), var(--fill-saturation), var(--fill-lightness), 1);
    stroke: hsla(
    var(--hue),
    var(--stroke-saturation),
    var(--stroke-lightness),
    1
    );
    }

    .node.top {
    stroke-width: 1.5;
    }
    .node.terminal {
    opacity: 0.6;
    }

    .edge {
    stroke: var(--edge-color);
    fill: transparent;
    stroke-width: 1;
    }

    .port {
    --hue: 0;
    --stroke-saturation: 0%;
    --stroke-lightness: var(--stage-stroke-lightness);
    --fill-saturation: 0%;
    --fill-lightness: var(--stage-fill-lightness);

    stroke: hsla(
    var(--hue),
    var(--stroke-saturation),
    var(--stroke-lightness),
    1
    );
    fill: hsla(var(--hue), var(--fill-saturation), var(--fill-lightness), 1);
    }

    text {
    fill: var(--text-color);
    }

    text.configType {
    opacity: 0.55;
    }

    text.component {
    opacity: 0.7;
    }

    text.configType.component {
    opacity: 0.45;
    }

    .query,
    .featureFields,
    .documents,
    .documentDuplicates,
    .featureSource,
    .documentContent,
    .contentFields,
    .labels,
    .labelFilter,
    .labelScorer,
    .labelFetcher,
    .documentClusters,
    .labelClusters,
    .clusters,
    .embedding2d,
    .vector,
    .matrix,
    .partialMatrix,
    .embedding {
    --fill-saturation: var(--stage-fill-saturation);
    --fill-lightness: var(--stage-fill-lightness);
    --stroke-saturation: var(--stage-stroke-saturation);
    --stroke-lightness: var(--stage-stroke-lightness);
    }

    .component {
    --fill-lightness: var(--component-fill-lightness);
    --fill-saturation: var(--component-fill-saturation);
    --stroke-lightness: var(--component-stroke-lightness);
    --stroke-saturation: var(--component-stroke-saturation);
    }

    .query,
    .featureFields {
    --hue: 40;
    }

    .documents {
    --hue: 0;
    }

    .documentDuplicates {
    --hue: 20;
    }

    .featureSource {
    --hue: 50;
    }

    .documentClusters {
    --hue: 340;
    }

    .documentContent,
    .contentFields {
    --hue: 310;
    }

    .labelFetcher {
    --hue: 80;
    }

    .labels,
    .labelScorer,
    .labelFilter {
    --hue: 100;
    }

    .labelClusters {
    --hue: 130;
    }

    .embedding2d {
    --hue: 170;
    }

    .clusters {
    --hue: 150;
    }

    .vector {
    --hue: 200;
    }

    .matrix,
    .partialMatrix {
    --hue: 230;
    }

    .embedding {
    --hue: 260;
    }
  </style>
  <g transform="translate(0, 0)">
    <rect class="node stage documents top" x="20.38397216796875" y="388" rx="2"
          width="123.29588317871094" height="38"></rect>
    <g transform="translate(20.38397216796875, 388)"></g>
    <g transform="translate(20.38397216796875, 388)">
      <text x="5" y="6" alignment-baseline="hanging" font-size="16" class="stage">
        seedDocuments
      </text>
      <text x="7.9539947509765625" y="22" alignment-baseline="hanging" font-size="12"
            class="stage configType">documents:byQuery
      </text>
    </g>
    <rect class="node stage labels top" x="221.6798553466797" y="242.5" rx="2"
          width="307.7677001953125" height="121.5"></rect>
    <g transform="translate(221.6798553466797, 242.5)">
      <rect class="node component labelFetcher" x="74.15194702148438" y="45" rx="2"
            width="109.51986694335938" height="54"></rect>
      <g transform="translate(74.15194702148438, 45)"></g>
      <g transform="translate(74.15194702148438, 45)">
        <text x="0" y="-32" alignment-baseline="hanging" font-size="16" class="component">
          fetcher
        </text>
        <text x="0" y="-16" alignment-baseline="hanging" font-size="12"
              class="component configType">labelFetcher:fromDocumentFeatureFields
        </text>
      </g>
    </g>
    <g transform="translate(221.6798553466797, 242.5)">
      <text x="0" y="-32" alignment-baseline="hanging" font-size="16" class="stage">
        seedLabels
      </text>
      <text x="0" y="-16" alignment-baseline="hanging" font-size="12"
            class="stage configType">labels:fromDocuments
      </text>
    </g>
    <rect class="node stage documents top" x="607.4475555419922" y="45" rx="2"
          width="165.26390075683594" height="168"></rect>
    <g transform="translate(607.4475555419922, 45)">
      <rect class="node component query" x="17" y="45" rx="2" width="136.26390075683594"
            height="111"></rect>
      <g transform="translate(17, 45)">
        <rect class="node component query" x="41.51197814941406" y="45" rx="2"
              width="62.863922119140625" height="54"></rect>
        <g transform="translate(41.51197814941406, 45)"></g>
        <g transform="translate(41.51197814941406, 45)">
          <text x="0" y="-32" alignment-baseline="hanging" font-size="16"
                class="component">query
          </text>
          <text x="0" y="-16" alignment-baseline="hanging" font-size="12"
                class="component configType">query:forLabels
          </text>
        </g>
      </g>
      <g transform="translate(17, 45)">
        <text x="0" y="-32" alignment-baseline="hanging" font-size="16" class="component">
          query
        </text>
        <text x="0" y="-16" alignment-baseline="hanging" font-size="12"
              class="component configType">query:filter
        </text>
      </g>
    </g>
    <g transform="translate(607.4475555419922, 45)">
      <text x="0" y="-32" alignment-baseline="hanging" font-size="16" class="stage">
        mltDocuments
      </text>
      <text x="0" y="-16" alignment-baseline="hanging" font-size="12"
            class="stage configType">documents:byQuery
      </text>
    </g>
    <rect class="node stage documentContent top" x="284.16779073079425" y="483" rx="2"
          width="118.30389404296875" height="54"></rect>
    <g transform="translate(284.16779073079425, 483)"></g>
    <g transform="translate(284.16779073079425, 483)">
      <text x="0" y="-32" alignment-baseline="hanging" font-size="16" class="stage">
        seedDocumentsContent
      </text>
      <text x="0" y="-16" alignment-baseline="hanging" font-size="12"
            class="stage configType">documentContent
      </text>
    </g>
    <rect class="node stage documentContent top" x="848.7114562988281" y="509" rx="2"
          width="118.30389404296875" height="54"></rect>
    <g transform="translate(848.7114562988281, 509)"></g>
    <g transform="translate(848.7114562988281, 509)">
      <text x="0" y="-32" alignment-baseline="hanging" font-size="16" class="stage">
        mltDocumentContent
      </text>
      <text x="0" y="-16" alignment-baseline="hanging" font-size="12"
            class="stage configType">documentContent
      </text>
    </g>
    <rect class="node component query top" x="370.4157257080078" y="103" rx="2"
          width="109.0718994140625" height="38"></rect>
    <g transform="translate(370.4157257080078, 103)"></g>
    <g transform="translate(370.4157257080078, 103)">
      <text x="15.183990478515625" y="6" alignment-baseline="hanging" font-size="16"
            class="component">filterQuery
      </text>
      <text x="5" y="22" alignment-baseline="hanging" font-size="12"
            class="component configType">query:complement
      </text>
    </g>
    <rect class="node component labelFilter top" x="22.427993774414062" y="306.5" rx="2"
          width="121.25186157226562" height="38"></rect>
    <g transform="translate(22.427993774414062, 306.5)"></g>
    <g transform="translate(22.427993774414062, 306.5)">
      <text x="24.785964965820312" y="6" alignment-baseline="hanging" font-size="16"
            class="component">labelFilter
      </text>
      <text x="5" y="22" alignment-baseline="hanging" font-size="12"
            class="component configType">labelFilter:composite
      </text>
    </g>
    <rect class="node component featureFields top" x="12" y="132" rx="2"
          width="131.6798553466797" height="38"></rect>
    <g transform="translate(12, 132)"></g>
    <g transform="translate(12, 132)">
      <text x="47.095947265625" y="6" alignment-baseline="hanging" font-size="16"
            class="component">fields
      </text>
      <text x="5" y="22" alignment-baseline="hanging" font-size="12"
            class="component configType">featureFields:weighted
      </text>
    </g>
    <rect class="node component contentFields top" x="24.539993286132812" y="502" rx="2"
          width="119.13986206054688" height="38"></rect>
    <g transform="translate(24.539993286132812, 502)"></g>
    <g transform="translate(24.539993286132812, 502)">
      <text x="11.569976806640625" y="6" alignment-baseline="hanging" font-size="16"
            class="component">contentFields
      </text>
      <text x="5" y="22" alignment-baseline="hanging" font-size="12"
            class="component configType">contentFields:simple
      </text>
    </g>
    <circle class="node terminal" cx="229.6798553466797" cy="407" r="8"></circle>
    <circle class="node terminal" cx="615.4475555419922" cy="256" r="8"></circle>
    <circle class="node terminal" cx="856.7114562988281" cy="141" r="8"></circle>
    <circle class="node terminal" cx="615.4475555419922" cy="510" r="8"></circle>
    <circle class="node terminal" cx="1031.5753021240234" cy="536" r="8"></circle>
  </g>
  <path class="edge undefined"
        d="M146.6798553466797,407L152.51318868001303,407C158.34652201334634,407,170.01318868001303,407,175.84652201334634,395.4166666666667C181.6798553466797,383.8333333333333,181.6798553466797,360.6666666666667,187.84652201334634,349.0833333333333C194.01318868001303,337.5,206.34652201334634,337.5,212.51318868001303,337.5L218.6798553466797,337.5"></path>
  <path class="edge undefined"
        d="M146.6798553466797,325.5L158.34652201334634,325.5C170.01318868001303,325.5,193.34652201334634,325.5,217.7051798502604,325.5C242.06383768717447,325.5,267.44782002766925,325.5,280.1398111979167,325.5L292.83180236816406,325.5"></path>
  <path class="edge undefined"
        d="M146.6798553466797,151L152.51318868001303,151C158.34652201334634,151,170.01318868001303,151,175.84652201334634,176.41666666666666C181.6798553466797,201.83333333333334,181.6798553466797,252.66666666666666,187.51318868001303,278.0833333333333C193.34652201334634,303.5,205.01318868001303,303.5,223.53851318359375,303.5C242.06383768717447,303.5,267.44782002766925,303.5,280.1398111979167,303.5L292.83180236816406,303.5"></path>
  <path class="edge undefined"
        d="M532.4475555419922,256L538.2808888753256,256C544.1142222086588,256,555.7808888753256,256,561.6142222086588,242.16666666666666C567.4475555419922,228.33333333333334,567.4475555419922,200.66666666666666,573.2808888753256,186.83333333333334C579.1142222086588,173,590.7808888753256,173,599.4475555419922,173C608.1142222086588,173,613.7808888753256,173,623.8662185668945,173C633.9515482584635,173,648.4555409749349,173,655.7075373331705,173L662.9595336914062,173"></path>
  <path class="edge undefined"
        d="M146.6798553466797,151L184.6604970296224,151C222.6411387125651,151,298.6024220784505,151,374.56370544433594,151C450.5249888102214,151,526.4862721761068,151,567.3002471923828,151C608.1142222086588,151,613.7808888753256,151,623.8662185668945,151C633.9515482584635,151,648.4555409749349,151,655.7075373331705,151L662.9595336914062,151"></path>
  <path class="edge undefined"
        d="M482.4876251220703,122L496.6476135253906,122C510.80760192871094,122,539.1275787353516,122,553.2875671386719,122.66666666666667C567.4475555419922,123.33333333333333,567.4475555419922,124.66666666666667,573.2808888753256,125.33333333333333C579.1142222086588,126,590.7808888753256,126,599.7808888753256,126C608.7808888753256,126,615.1142222086588,126,618.2808888753256,126L621.4475555419922,126"></path>
  <path class="edge undefined"
        d="M146.6798553466797,407L152.51318868001303,407C158.34652201334634,407,170.01318868001303,407,175.84652201334634,422.3333333333333C181.6798553466797,437.6666666666667,181.6798553466797,468.3333333333333,198.26117791069876,483.6666666666667C214.84250047471787,499,248.00514560275607,499,264.58646816677515,499L281.16779073079425,499"></path>
  <path class="edge undefined" d="M146.6798553466797,521L281.16779073079425,521"></path>
  <path class="edge undefined"
        d="M775.7114562988281,141L781.5447896321615,141C787.3781229654948,141,799.0447896321615,141,804.8781229654948,205C810.7114562988281,269,810.7114562988281,397,816.5447896321615,461C822.3781229654948,525,834.0447896321615,525,839.8781229654948,525L845.7114562988281,525"></path>
  <path class="edge undefined"
        d="M146.6798553466797,521L152.51318868001303,521C158.34652201334634,521,170.01318868001303,521,175.84652201334634,525.3333333333334C181.6798553466797,529.6666666666666,181.6798553466797,538.3333333333334,213.82716369628906,542.6666666666666C245.97447204589844,547,310.2690887451172,547,394.83569717407227,547C479.40230560302734,547,584.2409057617188,547,662.7655309041342,547C741.2901560465494,547,793.5008061726888,547,819.6061312357584,547L845.7114562988281,547"></path>
  <path class="edge undefined" d="M146.6798553466797,407L221.6798553466797,407"></path>
  <path class="edge undefined" d="M532.4475555419922,256L607.4475555419922,256"></path>
  <path class="edge undefined" d="M775.7114562988281,141L848.7114562988281,141"></path>
  <path class="edge undefined" d="M405.471684773763,510L607.4475555419922,510"></path>
  <path class="edge undefined" d="M970.0153503417969,536L1023.5753021240234,536"></path>
  <g transform="translate(0, 0)">
    <g transform="translate(20.38397216796875, 388)">
      <polygon class="port documents stage"
               points="123.29588317871094 , 14.5 129.29588317871094 , 19 123.29588317871094 , 23.5"></polygon>
      }
      <g transform="translate(6, 0)"></g>
    </g>
    <g transform="translate(20.38397216796875, 388)"></g>
    <g transform="translate(221.6798553466797, 242.5)">
      <polygon class="port labels stage"
               points="307.7677001953125 , 9 313.7677001953125 , 13.5 307.7677001953125 , 18"></polygon>
      }
      <g transform="translate(6, -9)"></g>
      <circle class="port labels stage" cx="0" cy="95" r="3"></circle>}
      <g transform="translate(6, -9)">
        <g transform="translate(-3, 93.5)">
          <text x="4" y="5" alignment-baseline="hanging" font-size="12" class="">
            documents
          </text>
        </g>
      </g>
    </g>
    <g transform="translate(221.6798553466797, 242.5)">
      <g transform="translate(74.15194702148438, 45)"><circle
          class="port labelFetcher component" cx="0" cy="38" r="3"></circle>}
        <g transform="translate(6, 0)">
          <g transform="translate(-3, 36.5)">
            <text x="4" y="-3.5" alignment-baseline="hanging" font-size="12" class="">
              labelFilter
            </text>
          </g>
        </g>
        <circle class="port labelFetcher component" cx="0" cy="16" r="3"></circle>}
        <g transform="translate(6, 0)">
          <g transform="translate(-3, 14.5)">
            <text x="4" y="-3.5" alignment-baseline="hanging" font-size="12" class="">
              fields
            </text>
          </g>
        </g>
      </g>
      <g transform="translate(74.15194702148438, 45)"></g>
    </g>
    <g transform="translate(607.4475555419922, 45)">
      <polygon class="port documents stage"
               points="165.26390075683594 , 91.5 171.26390075683594 , 96 165.26390075683594 , 100.5"></polygon>
      }
      <g transform="translate(6, -9)"></g>
    </g>
    <g transform="translate(607.4475555419922, 45)">
      <g transform="translate(17, 45)"><circle class="port query component" cx="0" cy="36"
                                               r="3"></circle>}
        <g transform="translate(6, -9)">
          <g transform="translate(-3, 34.5)">
            <text x="4" y="5" alignment-baseline="hanging" font-size="12" class="">
              filter
            </text>
          </g>
        </g>
      </g>
      <g transform="translate(17, 45)">
        <g transform="translate(41.51197814941406, 45)"><circle
            class="port query component" cx="0" cy="38" r="3"></circle>}
          <g transform="translate(6, 0)">
            <g transform="translate(-3, 36.5)">
              <text x="4" y="-3.5" alignment-baseline="hanging" font-size="12" class="">
                labels
              </text>
            </g>
          </g>
          <circle class="port query component" cx="0" cy="16" r="3"></circle>}
          <g transform="translate(6, 0)">
            <g transform="translate(-3, 14.5)">
              <text x="4" y="-3.5" alignment-baseline="hanging" font-size="12" class="">
                fields
              </text>
            </g>
          </g>
        </g>
        <g transform="translate(41.51197814941406, 45)"></g>
      </g>
    </g>
    <g transform="translate(284.16779073079425, 483)">
      <polygon
          class="port documentContent stage"
          points="118.30389404296875 , 22.5 124.30389404296875 , 27 118.30389404296875 , 31.5"></polygon>
      }
      <g transform="translate(6, 0)"></g>
      <circle class="port documentContent stage" cx="0" cy="16" r="3"></circle>}
      <g transform="translate(6, 0)">
        <g transform="translate(-3, 14.5)">
          <text x="4" y="-3.5" alignment-baseline="hanging" font-size="12" class="">
            documents
          </text>
        </g>
      </g>
      <circle class="port documentContent stage" cx="0" cy="38" r="3"></circle>}
      <g transform="translate(6, 0)">
        <g transform="translate(-3, 36.5)">
          <text x="4" y="-3.5" alignment-baseline="hanging" font-size="12" class="">
            fields
          </text>
        </g>
      </g>
    </g>
    <g transform="translate(284.16779073079425, 483)"></g>
    <g transform="translate(848.7114562988281, 509)">
      <polygon
          class="port documentContent stage"
          points="118.30389404296875 , 22.5 124.30389404296875 , 27 118.30389404296875 , 31.5"></polygon>
      }
      <g transform="translate(6, 0)"></g>
      <circle class="port documentContent stage" cx="0" cy="16" r="3"></circle>}
      <g transform="translate(6, 0)">
        <g transform="translate(-3, 14.5)">
          <text x="4" y="-3.5" alignment-baseline="hanging" font-size="12" class="">
            documents
          </text>
        </g>
      </g>
      <circle class="port documentContent stage" cx="0" cy="38" r="3"></circle>}
      <g transform="translate(6, 0)">
        <g transform="translate(-3, 36.5)">
          <text x="4" y="-3.5" alignment-baseline="hanging" font-size="12" class="">
            fields
          </text>
        </g>
      </g>
    </g>
    <g transform="translate(848.7114562988281, 509)"></g>
    <g transform="translate(370.4157257080078, 103)">
      <polygon class="port query component"
               points="109.0718994140625 , 14.5 115.0718994140625 , 19 109.0718994140625 , 23.5"></polygon>
      }
      <g transform="translate(6, 0)"></g>
    </g>
    <g transform="translate(370.4157257080078, 103)"></g>
    <g transform="translate(22.427993774414062, 306.5)">
      <polygon
          class="port labelFilter component"
          points="121.25186157226562 , 14.5 127.25186157226562 , 19 121.25186157226562 , 23.5"></polygon>
      }
      <g transform="translate(6, 0)"></g>
    </g>
    <g transform="translate(22.427993774414062, 306.5)"></g>
    <g transform="translate(12, 132)">
      <polygon class="port featureFields component"
               points="131.6798553466797 , 14.5 137.6798553466797 , 19 131.6798553466797 , 23.5"></polygon>
      }
      <g transform="translate(6, 0)"></g>
    </g>
    <g transform="translate(12, 132)"></g>
    <g transform="translate(24.539993286132812, 502)">
      <polygon
          class="port contentFields component"
          points="119.13986206054688 , 14.5 125.13986206054688 , 19 119.13986206054688 , 23.5"></polygon>
      }
      <g transform="translate(6, 0)"></g>
    </g>
    <g transform="translate(24.539993286132812, 502)"></g>
  </g>
</svg>